<?xml version="1.0" encoding="utf-8"?><svg viewBox="0 0 70 70" xmlns="http://www.w3.org/2000/svg" xmlns:xlink="http://www.w3.org/1999/xlink"><style>:root>svg{display:none}:root>svg:target{display:block}</style><svg fill="none" viewBox="0 0 40 40" id="Whatsapp-Icon" xmlns="http://www.w3.org/2000/svg"><g clip-path="url(#ca)"><path d="M20 39.375c10.7 0 19.375-8.674 19.375-19.375C39.375 9.3 30.701.625 20 .625 9.3.625.625 9.299.625 20 .625 30.7 9.299 39.375 20 39.375Z" fill="#30BF39"/><path d="M25.875 21.751c-.25-.125-1.563-.875-1.813-.938-.25-.124-.437-.124-.625.126-.187.25-.75.875-.875 1-.187.187-.312.187-.562.062-.25-.125-1.125-.438-2.125-1.438-.75-.75-1.313-1.624-1.438-1.937-.125-.25 0-.438.125-.563.125-.124.25-.312.438-.437s.188-.25.313-.438c.125-.187.062-.312 0-.5-.063-.187-.563-1.5-.75-2.062-.188-.563-.438-.438-.563-.5-.188 0-.313-.063-.5-.063-.25 0-.563.125-.75.313-.25.25-1 .875-1 2.188 0 1.312.875 2.687 1 2.812.125.188 1.75 3.063 4.438 4.25 2.687 1.188 2.687.813 3.187.813S26 23.814 26.25 23.25c.25-.625.25-1.188.188-1.25-.125 0-.313-.063-.563-.25Zm-5 6.438c-1.75 0-3.375-.5-4.813-1.438l-3.375 1.063 1.126-3.25c-1.063-1.5-1.688-3.313-1.688-5.188a8.802 8.802 0 0 1 8.813-8.813c4.875 0 8.75 3.938 8.75 8.813a8.802 8.802 0 0 1-8.813 8.813Zm0-19.376c-5.813 0-10.563 4.75-10.563 10.563 0 1.938.5 3.813 1.5 5.438L9.876 30.5l5.875-1.875c1.563.875 3.313 1.313 5.125 1.313 5.813 0 10.563-4.75 10.563-10.563 0-5.813-4.688-10.563-10.563-10.563Z" fill="#fff"/></g><defs><clipPath id="ca"><path fill="#fff" d="M0 0h40v40H0z"/></clipPath></defs></svg><svg fill="none" viewBox="0 0 70 70" id="dropbox" xmlns="http://www.w3.org/2000/svg"><path fill-rule="evenodd" clip-rule="evenodd" d="M0 35C0 15.67 15.67 0 35 0s35 15.67 35 35-15.67 35-35 35S0 54.33 0 35Z" fill="#3D9AE8"/><path fill-rule="evenodd" clip-rule="evenodd" d="M47.128 44.93v1.967l-12.156 7.885-11.887-7.939V44.99l3.555 2.107.396.233.365-.28 7.68-5.892 7.677 5.893.368.281.397-.238 3.605-2.163Z" fill="#fff"/><path fill-rule="evenodd" clip-rule="evenodd" d="m43.361 17.552-8.28 6.944-8.094-6.944-12.394 8.073 8.535 6.492-8.535 6.494 8.492 5.03 3.902 2.31 8.094-6.21 8.092 6.21 3.955-2.373 8.279-4.968-7.906-6.775 7.906-6.587-12.045-7.696Zm3.436 14.02L35 39.389l-11.724-7.386 11.83-7.148 11.69 6.717Z" fill="#fff"/><path fill-rule="evenodd" clip-rule="evenodd" d="M70 35c0 19.33-15.67 35-35 35a34.837 34.837 0 0 1-19.384-5.853L55.72 6.789C64.38 13.161 70 23.424 70 35Z" fill="#000" fill-opacity=".08"/></svg><svg fill="none" viewBox="0 0 35 36" id="vk" xmlns="http://www.w3.org/2000/svg"><path d="M17.5.5C7.835.5 0 8.335 0 18s7.835 17.5 17.5 17.5S35 27.665 35 18 27.165.5 17.5.5Zm8.877 19.393c.816.796 1.679 1.546 2.41 2.425.325.39.631.791.864 1.243.332.645.032 1.352-.545 1.39H25.52c-.925.077-1.662-.297-2.284-.93-.495-.504-.956-1.043-1.433-1.565a3.351 3.351 0 0 0-.646-.574c-.488-.318-.913-.22-1.193.29-.285.52-.35 1.095-.378 1.673-.039.846-.294 1.067-1.142 1.106-1.813.085-3.532-.19-5.13-1.104-1.41-.806-2.502-1.943-3.453-3.231-1.852-2.51-3.27-5.266-4.545-8.101-.286-.638-.077-.98.628-.993a99.95 99.95 0 0 1 3.51-.001c.476.007.791.28.974.729.633 1.556 1.408 3.036 2.38 4.409.258.365.523.73.899.988.415.285.732.19.927-.273.126-.294.18-.61.207-.925.093-1.082.104-2.163-.057-3.24-.1-.675-.48-1.11-1.151-1.238-.343-.065-.292-.191-.126-.387.289-.338.56-.547 1.1-.547h4.051c.639.124.782.411.869 1.054l.003 4.502c-.007.248.125.986.572 1.149.358.118.594-.17.809-.396.971-1.03 1.663-2.247 2.283-3.507.273-.555.51-1.13.739-1.705.17-.426.435-.636.916-.628l3.9.004c.115 0 .232.001.346.021.657.112.837.395.634 1.037-.32 1.007-.942 1.847-1.55 2.688-.652.9-1.347 1.77-1.992 2.675-.593.827-.546 1.243.19 1.962Z" fill="#757575"/></svg></svg>